<svg xmlns="http://www.w3.org/2000/svg" width="387.064" height="72" viewBox="0 0 387.064 72">
  <g id="Grupo_23" data-name="Grupo 23" transform="translate(-34 -20)">
    <g id="paw" transform="translate(34 20)">
      <path id="Trazado_54" data-name="Trazado 54" d="M132.063,22.293a8.186,8.186,0,0,0,6.481-3.49,12.8,12.8,0,0,0,2.407-7.656,12.8,12.8,0,0,0-2.407-7.656,7.761,7.761,0,0,0-12.961,0,12.8,12.8,0,0,0-2.407,7.656,12.8,12.8,0,0,0,2.407,7.656A8.186,8.186,0,0,0,132.063,22.293Zm0,0" transform="translate(-105.854 0)" fill="#fff"/>
      <path id="Trazado_55" data-name="Trazado 55" d="M271.309,22.293a8.185,8.185,0,0,0,6.48-3.49,12.8,12.8,0,0,0,2.407-7.656,12.8,12.8,0,0,0-2.407-7.656,7.76,7.76,0,0,0-12.961,0,12.8,12.8,0,0,0-2.407,7.656,12.8,12.8,0,0,0,2.407,7.656A8.186,8.186,0,0,0,271.309,22.293Zm0,0" transform="translate(-225.519 0)" fill="#fff"/>
      <path id="Trazado_56" data-name="Trazado 56" d="M415.1,72.671a6.817,6.817,0,0,0-11.363,0,11.5,11.5,0,0,0,0,13.182,6.817,6.817,0,0,0,11.363,0,11.5,11.5,0,0,0,0-13.182Zm0,0" transform="translate(-345.18 -59.831)" fill="#fff"/>
      <path id="Trazado_57" data-name="Trazado 57" d="M13.44,85.853a11.5,11.5,0,0,0,0-13.182,7.169,7.169,0,0,0-5.682-3.05,7.168,7.168,0,0,0-5.681,3.05,11.5,11.5,0,0,0,0,13.182A7.169,7.169,0,0,0,7.758,88.9a7.169,7.169,0,0,0,5.682-3.05Zm0,0" transform="translate(0 -59.831)" fill="#fff"/>
      <path id="Trazado_58" data-name="Trazado 58" d="M69.223,200.973A30.563,30.563,0,0,0,38.66,231.536a13.18,13.18,0,0,0,13.175,13.175,30.845,30.845,0,0,0,9.294-1.668,27.064,27.064,0,0,1,8.095-1.494,27.06,27.06,0,0,1,8.095,1.494,30.842,30.842,0,0,0,9.293,1.668,13.177,13.177,0,0,0,13.175-13.175,30.563,30.563,0,0,0-30.563-30.563Zm0,0" transform="translate(-33.223 -172.711)" fill="#fff"/>
      <path id="Trazado_59" data-name="Trazado 59" d="M277.612,209.924A30.363,30.363,0,0,0,256,200.973V241.55a27.059,27.059,0,0,1,8.095,1.494,30.841,30.841,0,0,0,9.293,1.668,13.177,13.177,0,0,0,13.175-13.175,30.363,30.363,0,0,0-8.951-21.612Zm0,0" transform="translate(-220 -172.711)" fill="#fff"/>
    </g>
    <path id="Trazado_3110" data-name="Trazado 3110" d="M30.408-43.6q-.084.672-.168,1.26t-.168,1.26q-.168,2.1-.336,4.116t-.5,4.032q-.252,2.1-.546,4.2a29.079,29.079,0,0,1-.882,4.116,24.782,24.782,0,0,1-2.184,5.8,19.751,19.751,0,0,1-3.78,4.956q-1.26,1.176-2.6,2.268A8.625,8.625,0,0,1,16.128-10a9.457,9.457,0,0,1-5.712-.252Q9.324-10.668,8.274-11T6.048-11.76q.084.5.168,1.05a2.634,2.634,0,0,1-.084,1.134q-.168,2.016-.21,4.032A12.756,12.756,0,0,1,5.208-1.6q-.084,1.008-1.176.84-.42-.084-.756-.168T2.52-1.092q-.84-.084-.756-1.092,0-1.008-.084-2.058T1.6-6.3q-.168-.924-.252-1.89t-.168-1.89l-.5-5.544q0-.588-.042-1.134T.588-17.976Q.42-20.412.378-22.89T.168-27.8q0-.672-.042-1.344a7.194,7.194,0,0,1,.042-1.344q-.084-1.6-.084-3.15v-3.15q.084-2.52.168-5t.168-5Q.5-48.636.588-50.442T.756-54.18Q.84-55.1.84-56.07t.084-1.89a2.031,2.031,0,0,1,.42-.924,1.6,1.6,0,0,1,.924-.336,5.606,5.606,0,0,1,1.806-.042,2.345,2.345,0,0,1,1.554,1.05,5.082,5.082,0,0,1,.756,2.94q.084,2.772.084,5.586v5.67q0,1.176-.042,2.436t-.042,2.436Q6.3-37.212,6.3-35.406t-.084,3.738h.252q.168-1.092.378-2.142t.462-2.142a73.82,73.82,0,0,1,3.276-10.332,31.151,31.151,0,0,1,5.124-9.156,12.981,12.981,0,0,1,2.478-2.478A7.539,7.539,0,0,1,21.5-59.3a6.526,6.526,0,0,1,5.04,1.092,7.944,7.944,0,0,1,2.6,2.688,9.472,9.472,0,0,1,1.176,3.612q.084.588.126,1.092t.042,1.008q0,1.6-.042,3.15T30.408-43.6Zm-5.964-2.688q-.084-2.016-.084-3.654a30.873,30.873,0,0,0-.168-3.234,4.386,4.386,0,0,0-.252-1.47q-.252-.714-.42-1.386a1.054,1.054,0,0,0-.294-.336.634.634,0,0,0-.378-.168,4.222,4.222,0,0,0-3.276,1.512,19.587,19.587,0,0,0-3.486,4.2,31.84,31.84,0,0,0-2.394,4.788q-.924,2.436-1.722,4.914t-1.554,5Q9.744-33.936,9.2-31.71T8.148-27.3q-.588,2.52-1.092,5.082T6.048-17.052a2.826,2.826,0,0,0-.042.84,2.155,2.155,0,0,0,.21.756A14.541,14.541,0,0,0,7.35-13.692a2.683,2.683,0,0,0,1.89,1.008,10.085,10.085,0,0,0,1.806.168,2.421,2.421,0,0,0,1.638-.672q1.176-.924,2.184-1.89t2.016-2.058a8,8,0,0,0,.84-1.008,13.837,13.837,0,0,0,.756-1.176,24.647,24.647,0,0,0,1.89-4.536q.714-2.352,1.3-4.788.588-2.688,1.05-5.292t.882-5.292q.252-1.932.462-3.78T24.444-46.284ZM33.768-8.652a1.947,1.947,0,0,1,.042-.378,1.947,1.947,0,0,0,.042-.378q.084-1.512.042-3.066t.042-3.066l.168-4.368q.084-2.184.252-4.368a11.226,11.226,0,0,0,.042-1.68,6.8,6.8,0,0,1,.126-1.68q.168-1.68.42-3.276l.5-3.192a49.545,49.545,0,0,1,1.092-5.082q.672-2.478,1.6-4.914,1.008-2.688,2.058-5.208A27.513,27.513,0,0,1,42.84-54.18a11.966,11.966,0,0,1,2.73-2.94,8.057,8.057,0,0,1,3.654-1.512,8.374,8.374,0,0,1,7.056,1.848,7.363,7.363,0,0,1,1.89,2.436Q58.8-53,59.388-51.576A25.233,25.233,0,0,1,60.774-47q.462,2.31.882,4.662a12.243,12.243,0,0,1,.168,2.016,10.785,10.785,0,0,0,.168,1.932q.168,1.848.294,3.612t.294,3.612v2.352q.084,2.94.126,5.8t-.042,5.8q0,1.764-.168,3.528l-.336,3.528q-.168,1.26-.252,2.478t-.252,2.478a8.021,8.021,0,0,0-.084,1.134,8.021,8.021,0,0,1-.084,1.134,1.776,1.776,0,0,1-.294.84,5.727,5.727,0,0,1-.714.966,5.117,5.117,0,0,1-.84.756,1.364,1.364,0,0,1-.756.294q-.924-.084-1.848-.21a2.236,2.236,0,0,1-1.512-.882,2.042,2.042,0,0,1-.42-1.008L54.936-3.36v-5.8a3.618,3.618,0,0,1,.042-.588q.042-.252.126-.672-1.26.084-2.52.084a17.212,17.212,0,0,0-2.436.168,50.653,50.653,0,0,0-5.208.756q-1.932.252-3.738.588t-3.738.672q-.672.084-.672.924v5.46a3.109,3.109,0,0,1-.126.966.945.945,0,0,1-.714.546q-.336.168-.966-.252a2.01,2.01,0,0,1-.8-.84,3.171,3.171,0,0,1-.168-1.008,3.171,3.171,0,0,0-.168-1.008.171.171,0,0,0-.042-.126.332.332,0,0,1-.042-.21ZM55.1-13.608v-19.4q.168-1.428.294-2.772t.126-2.772q0-2.1-.084-4.158t-.168-4.158q0-1.512-.126-3.024A16.353,16.353,0,0,0,54.6-52.92a7.045,7.045,0,0,0-.8-2.184q-.378-.5-1.806-.42a3.817,3.817,0,0,0-1.26.336,11.3,11.3,0,0,0-3.276,2.31,15.658,15.658,0,0,0-2.352,3.15,45.584,45.584,0,0,0-2.6,5.418q-1.092,2.73-1.932,5.586-.588,1.932-1.134,3.738a31.636,31.636,0,0,0-.882,3.738,28.447,28.447,0,0,0-.546,4.032q-.126,2.016-.294,4.032a19.036,19.036,0,0,0-.21,2.1q-.042,1.008-.126,2.016-.168,1.932-.336,3.906t-.336,3.99q4.536-1.176,9.072-2.058A31.381,31.381,0,0,1,55.1-13.608ZM99.96-2.94q.252-.42.546-.882a5.379,5.379,0,0,0,.462-.882q1.008-2.352,2.058-4.578a37.917,37.917,0,0,0,1.806-4.578,37.54,37.54,0,0,0,1.344-5q.5-2.562,1.008-5a31.089,31.089,0,0,0,.63-3.528q.21-1.764.462-3.528a10.19,10.19,0,0,0,.084-1.26,6.653,6.653,0,0,1,.084-1.092q.084-2.6.21-5.124t.042-5.04q-.084-1.68-.294-3.4t-.546-3.486A26.275,26.275,0,0,0,106.68-54.6a7.537,7.537,0,0,0-.84-1.554q-.5-.714-.924-1.386a4.358,4.358,0,0,1,2.688-.546,2.734,2.734,0,0,1,2.352,1.806,15.26,15.26,0,0,1,.882,2.982q.294,1.554.63,2.982a26.419,26.419,0,0,1,.63,5.208q.042,2.52-.042,5.208-.084,1.848-.252,3.7t-.336,3.612q-.168,1.6-.336,3.108t-.42,3.024q-.336,1.932-.714,3.78t-.8,3.7a46.616,46.616,0,0,1-1.3,5.586,47.612,47.612,0,0,1-1.974,5.334q-.672,1.512-1.386,2.9t-1.554,2.814a2.6,2.6,0,0,1-1.6,1.344,4.231,4.231,0,0,1-2.352.168,14.426,14.426,0,0,0-1.848-.378A14.426,14.426,0,0,1,95.34-1.6,5.4,5.4,0,0,1,92.61-3.15a10.033,10.033,0,0,1-1.722-2.562,19.805,19.805,0,0,1-.966-2.73q-.378-1.386-.714-2.814t-.546-2.9q-.21-1.47-.378-2.982a2.753,2.753,0,0,1-.336-.42q-.84,3.528-1.848,6.888-.588,1.932-1.05,3.99a16.331,16.331,0,0,1-1.47,3.99l-.336.5-.336.5A2.535,2.535,0,0,1,81.144-.672a7.073,7.073,0,0,1-2.352-.588,5.4,5.4,0,0,1-2.6-1.806A9.189,9.189,0,0,1,74.76-5.88Q74.088-7.9,73.626-9.912t-.882-4.116q-.336-1.512-.588-3.066t-.5-3.15q-.168-1.344-.294-2.646t-.294-2.73q-.252-1.764-.5-3.612t-.42-3.7q-.168-1.428-.294-2.982t-.294-3.066q-.168-1.848-.336-3.738t-.336-3.738q-.168-2.184-.378-4.242t-.378-4.242a2.284,2.284,0,0,0-.084-.63,1.2,1.2,0,0,1,0-.63,4.274,4.274,0,0,1,.084-.84.873.873,0,0,1,.336-.588,1.542,1.542,0,0,1,.714-.21,1.461,1.461,0,0,1,.8.126A3.6,3.6,0,0,1,71.484-56.7q.588.672,1.26,1.344a7.256,7.256,0,0,1,1.386,2.688q.378,1.428.714,2.856.588,2.856,1.176,5.586t1.092,5.5q.252,1.428.378,2.9t.294,2.9q.168,1.848.378,3.654t.462,3.57l.672,4.536q.336,2.268.756,4.536.252,1.68.546,3.486t.63,3.57a14.189,14.189,0,0,1,.252,1.512l.168,1.512a.342.342,0,0,0,.252.084q.42-1.26.882-2.478t.882-2.562q.924-2.856,1.68-5.712t1.6-5.712a7.986,7.986,0,0,1,.5-1.512q.336-.756.756-1.512a.71.71,0,0,1,.336-.294,1.6,1.6,0,0,0,.42-.294,3.211,3.211,0,0,1,2.268-.168A3.07,3.07,0,0,1,92.988-25.2a23.672,23.672,0,0,1,1.47,3.906q.546,1.974.966,4.074.672,2.94,1.3,5.964a35.567,35.567,0,0,0,1.806,5.964,5.237,5.237,0,0,0,.462,1.218q.294.546.63,1.134Zm20.076-45.276a6.152,6.152,0,0,1-.588,3.444q-.588,1.092-1.428,1.092a4.073,4.073,0,0,1-.882-.294,1.166,1.166,0,0,1-.63-.8q-.336-1.092-.63-2.142t-.546-2.142a13.835,13.835,0,0,1-.252-1.554q-.084-.8-.168-1.554a.6.6,0,0,1,.336-.588,3.928,3.928,0,0,1,1.68-.126,5.685,5.685,0,0,1,1.6.546,2.208,2.208,0,0,1,1.428,1.764Q120.036-49.476,120.036-48.216Zm2.772,32.172a2.482,2.482,0,0,1,3.108.588,2.063,2.063,0,0,0,2.016.336,2.331,2.331,0,0,0,1.68-1.344,5.177,5.177,0,0,0,.336-2.94q-.168-1.428-.462-2.772a6.806,6.806,0,0,0-1.134-2.52q-.756-1.008-1.428-2.016T125.5-28.644a8.535,8.535,0,0,1-1.344-7.224q.252-1.176.588-2.31a7.879,7.879,0,0,1,1.008-2.142,6.266,6.266,0,0,1,2.436-1.848,4.533,4.533,0,0,1,2.94-.336q.672.168,1.3.294a2,2,0,0,1,1.05.546,5.618,5.618,0,0,1,1.89,2.016,4.178,4.178,0,0,1,.294,2.856v.5q0,.84-.924.672a1.358,1.358,0,0,1-1.092-1.344,7.988,7.988,0,0,0-.5-1.512l-.672-1.512a.565.565,0,0,0-.5-.252q-.252,0-.252.336-.168.924-.336,1.806a9.631,9.631,0,0,0-.168,1.806A14.99,14.99,0,0,0,131.8-31.5a11.227,11.227,0,0,0,2.352,4.2q.924,1.176,1.806,2.394a6.377,6.377,0,0,1,1.134,2.73,10.949,10.949,0,0,1,.042,3.7,6.023,6.023,0,0,1-1.806,3.276,6.149,6.149,0,0,1-2.6,1.722,14.9,14.9,0,0,1-3.108.63,8.582,8.582,0,0,1-2.562-.21,15.01,15.01,0,0,1-2.394-.8A3.356,3.356,0,0,1,122.808-16.044ZM177.24-7.476a12.758,12.758,0,0,0-.8-5,26.817,26.817,0,0,0-2.226-4.494,14.922,14.922,0,0,0-1.344-1.932q-.756-.924-1.6-1.848-1.008-1.092-2.016-2.1t-2.184-2.016a15.67,15.67,0,0,1-2.814-3.57,20.314,20.314,0,0,1-1.806-4.158q-.5-1.6-.84-3.15a11.884,11.884,0,0,1-.252-3.15,24.258,24.258,0,0,1,.672-4.074,33.36,33.36,0,0,1,1.26-3.906q.672-1.68,1.386-3.234a23.679,23.679,0,0,1,1.638-2.982,17.915,17.915,0,0,1,4.2-4.284,8.012,8.012,0,0,1,3.906-1.428,13.8,13.8,0,0,1,4.242.336,9.368,9.368,0,0,1,6.216,4.872,2.174,2.174,0,0,1,.294.966q.042.546.126,1.05a.673.673,0,0,1-.42.63.653.653,0,0,1-.672.042q-.588-.42-1.092-.8a1.814,1.814,0,0,1-.672-1.05.746.746,0,0,1-.084-.336.746.746,0,0,0-.084-.336q-1.092-3.36-4.2-1.848a6.958,6.958,0,0,0-2.058,1.134A15.608,15.608,0,0,0,174.3-52.5a18.856,18.856,0,0,0-2.73,4.074,26.209,26.209,0,0,0-1.722,4.578,12.243,12.243,0,0,0-.462,2.142q-.126,1.05-.294,2.226l-.168,2.016q-.084,1.008-.084,2.016a17.061,17.061,0,0,0,1.26,5.88,10.118,10.118,0,0,0,1.554,2.814q.966,1.218,2.058,2.394.84.924,1.6,1.764t1.6,1.68a45.49,45.49,0,0,1,3.57,3.822q1.638,1.974,3.234,4.074a7.016,7.016,0,0,1,1.386,3.36,14.9,14.9,0,0,1-.042,3.7,5.6,5.6,0,0,1-1.428,3.192A7.609,7.609,0,0,1,180.6-.84q-1.68.672-3.4,1.176a9.2,9.2,0,0,1-3.486.336Q171.444.5,169.218.126a14.654,14.654,0,0,1-4.326-1.47,6.527,6.527,0,0,1-3.7-4.788q-.168-1.092-.252-2.184a3.548,3.548,0,0,1,.5-2.1,3.086,3.086,0,0,1,1.26-1.218,1.738,1.738,0,0,1,1.68.126.968.968,0,0,1,.336.672q-.084.924-.252,1.932a6.09,6.09,0,0,0,0,2.016,4.855,4.855,0,0,0,.966,2.142,8.623,8.623,0,0,0,1.638,1.554,7.773,7.773,0,0,0,4.788,1.428,6.215,6.215,0,0,0,3.99-1.512A4.236,4.236,0,0,0,177.24-7.14Zm17.808-4.62q0,1.428.042,2.688t-.042,2.52a17.965,17.965,0,0,1-.126,2.142,7.865,7.865,0,0,0,.042,2.142,1.875,1.875,0,0,1-.168,1.386,5.758,5.758,0,0,1-.84,1.05,1.4,1.4,0,0,1-.63.21,7.233,7.233,0,0,1-.8.042,1.814,1.814,0,0,1-1.092,0,10.5,10.5,0,0,1-2.1-.5q-.168,0-.252-.294A1.8,1.8,0,0,1,189-1.176q-.084-3.7-.084-7.266t-.084-7.266V-22.68q.084-4.116.084-8.19T189-39.06v-7.392q-.084-1.344-.168-2.646t-.168-2.646a17.8,17.8,0,0,1,1.008-5.8,1.034,1.034,0,0,1,.84-.672,3.533,3.533,0,0,1,2.184.672,3.026,3.026,0,0,1,1.428,1.932q.336,1.6.588,3.15a29.278,29.278,0,0,1,.336,3.15q0,1.428-.126,2.9t-.21,2.9v1.344a10.826,10.826,0,0,0,.084,1.344v8.148q.084,2.436.084,4.83t.084,4.83v7.9h14.448a10.826,10.826,0,0,1,.084-1.344,11.526,11.526,0,0,0,.084-1.428V-22.26q.084-5.964.084-11.886t.084-11.886q.085-1.764.257-3.528t.342-3.612q.171-1.092.256-2.1t.256-2.1q.172-1.512,1.624-1.008a3.2,3.2,0,0,1,2.222,2.688q.168,2.352.336,4.62t.252,4.62q.084,2.184.084,4.326V-37.8q0,5.8-.084,11.634t-.084,11.634a16.237,16.237,0,0,0,.084,2.856,16.237,16.237,0,0,1,.084,2.856q0,1.764-.126,3.528t-.294,3.528a1.856,1.856,0,0,1-.341,1.134,7.449,7.449,0,0,1-.768.882.526.526,0,0,1-.469.126,3.984,3.984,0,0,0-.554-.042,4.406,4.406,0,0,1-.853.084h-.853A2.179,2.179,0,0,1,209.841,0a.947.947,0,0,1-.513-.924V-2.772q-.168-1.512-.21-3.024t-.126-3.024q0-.588.042-1.092t.126-1.008q.084-.672-.168-.84a1.574,1.574,0,0,0-.84-.168q-4.62.168-9.156,0-.924,0-1.89-.042T195.048-12.1Zm52.164-20.328q0,2.184.084,4.326a37.3,37.3,0,0,1-.084,4.326,67.576,67.576,0,0,1-1.05,8.61A43.218,43.218,0,0,1,243.684-6.8,8.678,8.678,0,0,1,242.34-4.41q-.84,1.05-1.68,2.142a11.343,11.343,0,0,1-1.05,1.218,2.7,2.7,0,0,1-1.47.714,6.849,6.849,0,0,1-2.436.084,23.162,23.162,0,0,1-2.562-.462,9.14,9.14,0,0,1-2.394-.966q-.924-.588-1.848-1.134a7.988,7.988,0,0,1-1.6-1.218A7.441,7.441,0,0,1,226-5.544q-.546-.84-1.05-1.764-.672-1.26-1.26-2.52a20.871,20.871,0,0,1-1.008-2.6q-.42-1.428-.714-2.814t-.546-2.814q-.252-1.764-.462-3.528t-.378-3.612a21.856,21.856,0,0,1-.126-3.024q.042-1.512.042-3.108,0-.672.042-1.428t.126-1.428q.252-1.848.5-3.654t.672-3.57a78.805,78.805,0,0,1,2.52-8.988,16.369,16.369,0,0,1,1.89-4.074,16.807,16.807,0,0,1,2.9-3.4,6.89,6.89,0,0,1,3.7-1.6,5.606,5.606,0,0,1,1.806-.042q.882.126,1.806.294a1.717,1.717,0,0,0,.756,0,3.123,3.123,0,0,1,.756-.084,4.465,4.465,0,0,1,2.94,1.428,17.083,17.083,0,0,1,3.024,4.83q1.092,2.646,1.932,5.334a31.383,31.383,0,0,1,.966,4.662q.294,2.31.378,4.746.084,1.512.042,2.982T247.212-32.424Zm-2.856.42h.168q-.168-1.932-.336-3.906t-.336-3.99q-.168-1.344-.294-2.688t-.378-2.688a29.2,29.2,0,0,0-1.092-3.78,29.517,29.517,0,0,0-1.6-3.612,22,22,0,0,0-.966-2.016,5.892,5.892,0,0,0-1.47-1.764,2.271,2.271,0,0,0-1.008-.714q-.336-.042-1.092.546a9.7,9.7,0,0,0-2.268,2.394,17.843,17.843,0,0,0-1.6,2.982,36.91,36.91,0,0,0-1.638,5.166q-.63,2.646-1.218,5.334-.42,1.932-.714,3.948a39.245,39.245,0,0,0-.378,4.032q-.084,1.68-.168,3.318t-.084,3.318q0,1.344.084,2.646t.168,2.646q.168,2.352.5,4.452.42,2.016.924,3.99a25.785,25.785,0,0,0,1.344,3.906,15.231,15.231,0,0,0,1.638,3.066,5.662,5.662,0,0,0,2.9,2.058,3.492,3.492,0,0,0,1.848.168,2.4,2.4,0,0,0,1.512-.924,20.9,20.9,0,0,0,3.528-8.232q.42-2.184.756-4.368t.588-4.368q.252-1.848.378-3.7t.294-3.78ZM280.98-43.6q-.084.672-.168,1.26t-.168,1.26q-.168,2.1-.336,4.116t-.5,4.032q-.252,2.1-.546,4.2a29.081,29.081,0,0,1-.882,4.116,24.782,24.782,0,0,1-2.184,5.8,19.751,19.751,0,0,1-3.78,4.956q-1.26,1.176-2.6,2.268A8.625,8.625,0,0,1,266.7-10a9.457,9.457,0,0,1-5.712-.252q-1.092-.42-2.142-.756t-2.226-.756q.084.5.168,1.05a2.634,2.634,0,0,1-.084,1.134q-.168,2.016-.21,4.032A12.755,12.755,0,0,1,255.78-1.6q-.084,1.008-1.176.84-.42-.084-.756-.168t-.756-.168q-.84-.084-.756-1.092,0-1.008-.084-2.058T252.168-6.3q-.168-.924-.252-1.89t-.168-1.89l-.5-5.544q0-.588-.042-1.134t-.042-1.218q-.168-2.436-.21-4.914t-.21-4.914q0-.672-.042-1.344a7.194,7.194,0,0,1,.042-1.344q-.084-1.6-.084-3.15v-3.15q.084-2.52.168-5t.168-5q.084-1.848.168-3.654t.168-3.738q.084-.924.084-1.89t.084-1.89a2.031,2.031,0,0,1,.42-.924,1.6,1.6,0,0,1,.924-.336,5.606,5.606,0,0,1,1.806-.042,2.345,2.345,0,0,1,1.554,1.05,5.082,5.082,0,0,1,.756,2.94q.084,2.772.084,5.586v5.67q0,1.176-.042,2.436t-.042,2.436q-.084,1.932-.084,3.738t-.084,3.738h.252q.168-1.092.378-2.142t.462-2.142a73.816,73.816,0,0,1,3.276-10.332,31.151,31.151,0,0,1,5.124-9.156,12.981,12.981,0,0,1,2.478-2.478,7.538,7.538,0,0,1,3.318-1.386,6.527,6.527,0,0,1,5.04,1.092,7.944,7.944,0,0,1,2.6,2.688,9.472,9.472,0,0,1,1.176,3.612q.084.588.126,1.092t.042,1.008q0,1.6-.042,3.15T280.98-43.6Zm-5.964-2.688q-.084-2.016-.084-3.654a30.865,30.865,0,0,0-.168-3.234,4.385,4.385,0,0,0-.252-1.47q-.252-.714-.42-1.386a1.054,1.054,0,0,0-.294-.336.634.634,0,0,0-.378-.168,4.222,4.222,0,0,0-3.276,1.512,19.586,19.586,0,0,0-3.486,4.2,31.844,31.844,0,0,0-2.394,4.788q-.924,2.436-1.722,4.914t-1.554,5q-.672,2.184-1.218,4.41t-1.05,4.41q-.588,2.52-1.092,5.082t-1.008,5.166a2.826,2.826,0,0,0-.042.84,2.155,2.155,0,0,0,.21.756,14.539,14.539,0,0,0,1.134,1.764,2.683,2.683,0,0,0,1.89,1.008,10.085,10.085,0,0,0,1.806.168,2.421,2.421,0,0,0,1.638-.672q1.176-.924,2.184-1.89t2.016-2.058a8,8,0,0,0,.84-1.008,13.836,13.836,0,0,0,.756-1.176,24.646,24.646,0,0,0,1.89-4.536q.714-2.352,1.3-4.788.588-2.688,1.05-5.292t.882-5.292q.252-1.932.462-3.78T275.016-46.284Z" transform="translate(140 84)" fill="#fff"/>
  </g>
</svg>
